<?xml version="1.0" encoding="UTF-8"?>
<svg id="Layer_2" data-name="Layer 2" xmlns="http://www.w3.org/2000/svg" viewBox="0 0 254.22 294.86">
  <defs>
    <style>
      .cls-1 {
        font-family: ITCHandelGothicArabic-Md, ITCHandelGothicArabic-Md;
        font-size: 33.9px;
        font-weight: 500;
      }

      .cls-1, .cls-2 {
        fill: #fff;
      }

      .cls-2 {
        stroke-width: 0px;
      }
    </style>
  </defs>
  <g id="Design">
    <g id="Artwork_4" data-name="Artwork 4">
      <g>
        <polygon class="cls-2" points="67.97 104.41 77.81 94.58 67.97 84.74 58.14 94.57 58.1 94.61 48.27 104.45 85.12 141.3 85.12 121.63 67.94 104.45 67.97 104.41"/>
        <polygon class="cls-2" points="196.12 94.61 196.08 94.57 186.24 84.74 176.41 94.58 186.24 104.41 186.28 104.45 186.25 104.48 176.41 114.31 176.38 114.35 168.99 121.74 168.99 141.4 205.95 104.45 196.12 94.61"/>
        <path class="cls-2" d="m146.79,84.81l9.9-9.9,9.84-9.83-.05-.05.03-.03-9.77-9.76-.03-.04-19.74-19.74-8.94-8.93v-7.91l8.85-8.85L127.11,0l-9.77,9.77,8.85,8.85v7.92l-8.94,8.93-19.74,19.74-.03.04-9.77,9.76.03.03-.05.05,9.84,9.83,16.01,16.01,9.84-9.84-16.01-16.01.04-.04,9.83-9.83,9.88-9.88,9.88,9.88,9.87,9.87-12.38,12.38.03.03-25.12,25.11-.02-.02-1.88,1.88-.04.03-9.84,9.84-.03.04-6.72,6.71-.41.41v19.69l.41-.41,6.68-6.69.04-.04,9.84-9.83.03-.04,9.84-9.84.04-.03,8.86-8.87v18.02l-29.5,29.5,30.42,30.42,30.42-30.42-29.5-29.5v-18.02l8.87,8.88.04.03,9.84,9.84.03.04,9.84,9.83.04.04,7,7.01v-19.69l-7.04-7.03-.03-.04-9.84-9.84-.04-.03-9.76-9.77-.03-.02h0s9.84-9.85,9.84-9.85Zm-19.68,81.59l-13.47-13.47,13.47-13.47,13.47,13.47-13.47,13.47Z"/>
      </g>
      <g>
        <g>
          <path class="cls-2" d="m35.62,229.25c.52,0,.89.11,1.1.34.21.23.31.66.31,1.3s-.1,1.07-.31,1.3c-.2.23-.57.34-1.11.34h-5.83v-12.73h-2.39c-1.43,0-2.48.33-3.13.98-.66.65-.99,1.65-.99,2.98v7.09c0,1.96-.38,3.64-1.14,5.05-.76,1.41-1.88,2.5-3.35,3.25-1.47.75-3.25,1.13-5.33,1.13-3.24,0-5.69-.82-7.36-2.47-1.67-1.65-2.5-4-2.5-7.06v-9.38h3.53v8.47c0,4.77,2.11,7.16,6.34,7.16,2.21,0,3.81-.64,4.8-1.92s1.48-3.03,1.48-5.24v-6.28c0-4.7,2.29-7.05,6.86-7.05h6.72v12.74h2.3Zm-23.1,12.94c.38.39.57.86.57,1.42,0,.5-.19.94-.57,1.32-.38.38-.83.57-1.37.57-.34,0-.65-.09-.95-.26-.3-.17-.53-.41-.71-.7-.17-.29-.26-.6-.26-.93,0-.56.19-1.03.57-1.42.38-.39.83-.58,1.35-.58s.99.2,1.37.58Zm4.97,0c.38.39.58.86.58,1.42,0,.33-.09.63-.26.93-.17.29-.41.52-.72.7-.3.17-.62.26-.96.26s-.68-.09-.99-.26c-.31-.17-.56-.41-.74-.7-.19-.29-.28-.6-.28-.93,0-.36.09-.7.28-1,.19-.31.43-.55.74-.73.31-.18.64-.27.99-.27.52,0,.98.2,1.36.58Z"/>
          <path class="cls-2" d="m34.77,232.39c-.2-.09-.35-.26-.44-.49-.09-.23-.13-.57-.13-1.01,0-.64.11-1.07.32-1.3.22-.23.58-.34,1.11-.34h7.87c.52,0,.89.11,1.1.34.21.23.31.66.31,1.3s-.1,1.07-.31,1.3c-.2.23-.57.34-1.11.34h-7.87c-.37,0-.66-.05-.86-.14Z"/>
          <path class="cls-2" d="m60.9,218.37c1.13,1.25,1.7,3.04,1.7,5.39v5.48h2.32c.52,0,.89.11,1.11.34.21.23.32.66.32,1.3s-.11,1.06-.32,1.29c-.22.23-.58.35-1.11.35h-21.42c-.52,0-.89-.12-1.11-.35-.21-.23-.32-.66-.32-1.29s.11-1.07.32-1.3c.22-.23.58-.34,1.11-.34h4.47v-12.74h7.68c2.36,0,4.11.62,5.25,1.87Zm-9.38,10.88h7.51v-5.15c0-1.46-.33-2.53-1-3.24-.66-.7-1.72-1.06-3.16-1.06h-3.35v9.44Z"/>
          <path class="cls-2" d="m64.06,232.39c-.2-.09-.35-.26-.44-.49-.09-.23-.13-.57-.13-1.01,0-.64.11-1.07.32-1.3.22-.23.58-.34,1.11-.34h7.87c.52,0,.89.11,1.1.34.21.23.31.66.31,1.3s-.1,1.07-.31,1.3c-.2.23-.57.34-1.11.34h-7.87c-.37,0-.66-.05-.86-.14Z"/>
          <path class="cls-2" d="m72.8,232.53c-.52,0-.89-.12-1.11-.35-.21-.23-.32-.66-.32-1.29s.11-1.07.32-1.3c.22-.23.58-.34,1.11-.34h4.57v-5.48c0-2.35.57-4.15,1.7-5.39s2.88-1.87,5.23-1.87h7.7v16.03h-19.2Zm11.09-22.62c.38.38.57.84.57,1.38s-.19.98-.57,1.36c-.38.38-.83.58-1.37.58s-.96-.19-1.34-.58-.58-.84-.58-1.36.19-1,.58-1.38c.38-.38.83-.58,1.34-.58s.99.19,1.37.58Zm-1.99,10.95c-.66.7-.99,1.78-.99,3.24v5.15h7.51v-9.44h-3.37c-1.44,0-2.49.35-3.15,1.06Zm6.96-10.95c.38.38.58.84.58,1.38s-.19.98-.58,1.36-.84.58-1.36.58c-.35,0-.68-.09-.99-.26-.31-.17-.56-.41-.74-.72-.19-.3-.28-.62-.28-.96s.09-.67.28-.97c.19-.3.43-.54.74-.72.31-.18.64-.27.99-.27.52,0,.98.19,1.36.58Z"/>
          <path class="cls-2" d="m104.8,229.25c.52,0,.89.11,1.11.34.22.23.32.66.32,1.3s-.11,1.06-.32,1.29c-.21.23-.58.35-1.11.35h-2.29c-.02,2.48-.63,4.39-1.81,5.73-1.18,1.34-2.98,2.02-5.38,2.02h-1.36v-3.35h1.08c1.35,0,2.34-.4,2.98-1.21.63-.8.95-1.89.95-3.26v-15.96h3.54v12.74h2.29Z"/>
          <path class="cls-2" d="m104.8,232.53c-.52,0-.89-.12-1.11-.35-.21-.23-.32-.66-.32-1.29s.11-1.07.32-1.3c.22-.23.58-.34,1.11-.34h5.04v-20.56h3.54v23.85h-8.59Z"/>
          <path class="cls-2" d="m118.24,232.53v-23.85h3.54v23.85h-3.54Z"/>
          <path class="cls-2" d="m153.76,223.56v5.69h2.36c.52,0,.89.11,1.11.34.22.23.32.66.32,1.3s-.1,1.07-.31,1.3c-.2.23-.58.34-1.13.34h-17.79v-3.28h11.91v-5.48c0-1.34-.33-2.33-.99-2.98-.66-.65-1.7-.98-3.13-.98h-5.18v-3.3h6.01c4.55,0,6.83,2.35,6.83,7.05Z"/>
          <path class="cls-2" d="m155.27,232.39c-.2-.09-.35-.26-.44-.49-.09-.23-.13-.57-.13-1.01,0-.64.11-1.07.32-1.3.22-.23.58-.34,1.11-.34h7.87c.52,0,.89.11,1.1.34.21.23.31.66.31,1.3s-.1,1.07-.31,1.3c-.2.23-.57.34-1.11.34h-7.87c-.37,0-.66-.05-.86-.14Z"/>
          <path class="cls-2" d="m163.14,232.39c-.2-.09-.35-.26-.44-.49-.09-.23-.13-.57-.13-1.01,0-.64.11-1.07.32-1.3.22-.23.58-.34,1.11-.34h7.87c.52,0,.89.11,1.1.34.21.23.31.66.31,1.3s-.1,1.07-.31,1.3c-.2.23-.57.34-1.11.34h-7.87c-.37,0-.66-.05-.86-.14Z"/>
          <path class="cls-2" d="m171.01,232.39c-.2-.09-.35-.26-.44-.49-.09-.23-.13-.57-.13-1.01,0-.64.11-1.07.32-1.3.22-.23.58-.34,1.11-.34h7.87c.52,0,.89.11,1.1.34.21.23.31.66.31,1.3s-.1,1.07-.31,1.3c-.2.23-.57.34-1.11.34h-7.87c-.37,0-.66-.05-.86-.14Z"/>
          <path class="cls-2" d="m178.89,232.39c-.2-.09-.35-.26-.44-.49-.09-.23-.13-.57-.13-1.01,0-.64.11-1.07.32-1.3.22-.23.58-.34,1.11-.34h7.87c.52,0,.89.11,1.1.34.21.23.31.66.31,1.3s-.1,1.07-.31,1.3c-.2.23-.57.34-1.11.34h-7.87c-.37,0-.66-.05-.86-.14Z"/>
          <path class="cls-2" d="m187.62,232.53c-.52,0-.89-.12-1.11-.35-.21-.23-.32-.66-.32-1.29s.11-1.07.32-1.3c.22-.23.58-.34,1.11-.34h4.57v-5.48c0-2.35.57-4.15,1.7-5.39s2.88-1.87,5.23-1.87h7.7v16.03h-19.2Zm9.1-11.67c-.66.7-.99,1.78-.99,3.24v5.15h7.51v-9.44h-3.37c-1.44,0-2.49.35-3.15,1.06Zm4.56-10.92c.38.38.57.85.57,1.4s-.19.97-.57,1.35-.83.57-1.37.57-.96-.19-1.35-.58-.58-.83-.58-1.34.19-1,.58-1.39c.38-.39.84-.58,1.36-.58s.99.19,1.37.58Z"/>
          <path class="cls-2" d="m211.68,232.53v-23.85h3.54v23.85h-3.54Z"/>
          <path class="cls-2" d="m226.88,229.25c.52,0,.89.11,1.11.34.22.23.32.66.32,1.3s-.11,1.06-.32,1.29c-.21.23-.58.35-1.11.35h-2.29c-.02,2.48-.63,4.39-1.81,5.73-1.18,1.34-2.98,2.02-5.38,2.02h-1.36v-3.35h1.08c1.35,0,2.34-.4,2.98-1.21.63-.8.95-1.89.95-3.26v-15.96h3.54v12.74h2.29Z"/>
          <path class="cls-2" d="m226.02,232.39c-.2-.09-.35-.26-.44-.49-.09-.23-.13-.57-.13-1.01,0-.64.11-1.07.32-1.3.22-.23.58-.34,1.11-.34h7.87c.52,0,.89.11,1.1.34.21.23.31.66.31,1.3s-.1,1.07-.31,1.3c-.2.23-.57.34-1.11.34h-7.87c-.37,0-.66-.05-.86-.14Z"/>
          <path class="cls-2" d="m234.76,232.53c-.52,0-.89-.12-1.11-.35-.21-.23-.32-.66-.32-1.29s.11-1.07.32-1.3c.22-.23.58-.34,1.11-.34h5.04v-20.56h3.54v23.85h-8.59Z"/>
          <path class="cls-2" d="m248.2,232.53v-23.85h3.54v23.85h-3.54Z"/>
        </g>
        <text class="cls-1" transform="translate(0 279.71)"><tspan x="0" y="0">Digital Tributary</tspan></text>
      </g>
    </g>
  </g>
</svg>